0
SECTION
2
HEADER
9
$INSUNITS
70
4
9
$ACADVER
1
AC1014
9
$HANDSEED
5
FFFF
0
ENDSEC
0
SECTION
2
TABLES
0
TABLE
2
VPORT
5
8
100
AcDbSymbolTable
0
ENDTAB
0
TABLE
2
LTYPE
5
5
100
AcDbSymbolTable
0
LTYPE
5
14
100
AcDbSymbolTableRecord
100
AcDbLinetypeTableRecord
2
BYBLOCK
70
0
0
LTYPE
5
15
100
AcDbSymbolTableRecord
100
AcDbLinetypeTableRecord
2
BYLAYER
70
0
0
ENDTAB
0
TABLE
2
LAYER
5
2
100
AcDbSymbolTable
70
2
0
LAYER
5
50
100
AcDbSymbolTableRecord
100
AcDbLayerTableRecord
2
0
70
0
6
CONTINUOUS
0
ENDTAB
0
TABLE
2
STYLE
5
3
100
AcDbSymbolTable
70
1
0
STYLE
5
11
100
AcDbSymbolTableRecord
100
AcDbTextStyleTableRecord
2
STANDARD
70
0
0
ENDTAB
0
TABLE
2
VIEW
5
6
100
AcDbSymbolTable
70
0
0
ENDTAB
0
TABLE
2
UCS
5
7
100
AcDbSymbolTable
70
0
0
ENDTAB
0
TABLE
2
APPID
5
9
100
AcDbSymbolTable
70
2
0
APPID
5
12
100
AcDbSymbolTableRecord
100
AcDbRegAppTableRecord
2
ACAD
70
0
0
ENDTAB
0
TABLE
2
DIMSTYLE
5
A
100
AcDbSymbolTable
70
1
0
ENDTAB
0
TABLE
2
BLOCK_RECORD
5
1
100
AcDbSymbolTable
70
1
0
BLOCK_RECORD
5
1F
100
AcDbSymbolTableRecord
100
AcDbBlockTableRecord
2
*MODEL_SPACE
0
BLOCK_RECORD
5
1B
100
AcDbSymbolTableRecord
100
AcDbBlockTableRecord
2
*PAPER_SPACE
0
ENDTAB
0
ENDSEC
0
SECTION
2
BLOCKS
0
BLOCK
5
20
100
AcDbEntity
100
AcDbBlockBegin
2
*MODEL_SPACE
0
ENDBLK
5
21
100
AcDbEntity
100
AcDbBlockEnd
0
BLOCK
5
1C
100
AcDbEntity
100
AcDbBlockBegin
2
*PAPER_SPACE
0
ENDBLK
5
1D
100
AcDbEntity
100
AcDbBlockEnd
0
ENDSEC
0
SECTION
2
ENTITIES
0
LWPOLYLINE
5
100
100
AcDbEntity
8
OUTER_PROFILES
100
AcDbPolyline
90
112
70
1
43
0.0
10
2.3872364282350285
20
19.227780158826768
42
0.32935065572251898
10
2.4091439730651363
20
18.633941418043932
10
3.7445348108786982
20
16.959414272147573
42
-0.30095060539542939
10
3.8421412127428423
20
15.859910807038213
42
0.044044363303080883
10
2.5163026888385795
20
12.793365161992241
42
-0.30095060539544277
10
1.6484228373709076
20
12.111295192789004
10
-0.4862809016135613
20
11.937083256269279
42
0.32935065572250888
10
-0.93391540730927591
20
11.54625370277374
42
0.016518942189502377
10
-1.1993607680336729
20
10.117431294915198
42
0.32935065572253691
10
-0.92196577888587594
20
9.591906404381211
10
1.0077298917816324
20
8.6626139473649726
42
-0.30095060539543472
10
1.5727268957836027
20
7.7143453857531954
42
0.044044363303080411
10
1.7087119525273571
20
4.3762234513473839
42
-0.30095060539543983
10
1.2227182938529157
20
3.3851406883045385
10
-0.62499559075086408
20
2.3019679169043941
42
0.32935065572249517
10
-0.85872575655330685
20
1.7556213234594087
42
0.016518942189501534
10
-0.47794095383848112
20
0.3531243905750367
42
0.32935065572252747
10
0
20
2.2204460492503131e-15
10
2.1418006097814581
20
-2.5673907444456745e-14
42
-0.30095060539544294
10
3.062283630045135
20
-0.60921743973623488
42
0.044044363303080571
10
4.6331587592015433
20
-3.5577596750139797
42
-0.30095060539544582
10
4.6253082977419
20
-4.6615591358434108
10
3.430546663088232
20
-6.439157090505784
42
0.32935065572249705
10
3.4570139630285546
20
-7.0328100805671614
42
0.016518942189503637
10
4.4086098289857842
20
-8.1311998204236602
42
0.32935065572253269
10
4.9924346800461716
20
-8.24198309469989
10
6.9221303507136911
20
-7.3126906376836356
42
-0.3009506053954325
10
8.0157864360924052
20
-7.4621939700429527
42
0.044044363303080571
10
10.710420552812874
20
-9.4371615549984647
42
-0.30095060539544
10
11.182268168739668
20
-10.435056693185157
10
10.877095978569136
20
-12.55500475538075
42
0.32935065572251332
10
11.158518570899025
20
-13.078383886700763
42
0.016518942189503217
10
12.492450268288453
20
-13.655116874684497
42
0.32935065572248473
10
13.066525344676235
20
-13.50161704652389
10
14.401916182489781
20
-11.827089900627534
42
-0.3009506053954365
10
15.452133332462644
20
-11.487268157098164
42
0.044044363303080411
10
18.73682110241197
20
-12.097494540143101
42
-0.30095060539544116
10
19.594911588559672
20
-12.79183998518846
10
20.239771937826898
20
-14.834256441742617
42
0.32935065572249084
10
20.720410626713729
20
-15.183700058539529
42
0.016518942189503637
10
22.172476623268626
20
-15.1245472532145
42
0.32935065572251182
10
22.623099315536521
20
-14.737166846136072
10
23.099694787573299
20
-12.649065649332059
42
-0.30095060539543195
10
23.89846461552008
20
-11.887224693860187
42
0.044044363303080411
10
27.122633341807973
20
-11.01184705589699
42
-0.30095060539545293
10
28.197011353605859
20
-11.265119176821807
10
29.664181741445233
20
-12.825478399919955
42
0.32935065572246164
10
30.248840139908296
20
-12.931774908242414
42
0.016518942189503637
10
31.531440956590263
20
-12.248452248164716
42
0.3293506557224673
10
31.769359914009954
20
-11.70391670269932
10
31.292764441973148
20
-9.6158155058952595
42
-0.30095060539542468
10
31.681880787199944
20
-8.5828472830782605
42
0.044044363303080251
10
34.206944311750568
20
-6.3952449011078283
42
-0.30095060539544238
10
35.284816107580404
20
-6.1572800481841039
10
37.283705445016409
20
-6.9265337571416064
42
0.32935065572246675
10
37.85658478687543
20
-6.7686298298752625
42
0.016518942189503217
10
38.715685601873815
20
-5.5964777482757642
42
0.32935065572246625
10
38.693778057043758
20
-5.0026390074930145
10
37.358387219230252
20
-3.3281118615966108
42
-0.30095060539543844
10
37.260780817366076
20
-2.2286083964872039
42
0.04404436330307962
10
38.586619341270321
20
0.83793724855866891
42
-0.30095060539544322
10
39.45449919273797
20
1.5200072177620272
10
41.589202931722483
20
1.6942191542817429
42
0.3293506557224477
10
42.036837437418185
20
2.0850487077772306
42
0.01651894218950448
10
42.302282798142528
20
3.5138711156357845
42
0.32935065572252131
10
42.024887808994791
20
4.0393960061697349
10
40.09519213832732
20
4.9686884631860302
42
-0.30095060539542817
10
39.530195134325311
20
5.9169570247977301
42
0.044044363303081369
10
39.394210077581512
20
9.2550789592036065
42
-0.30095060539543617
10
39.880203736255943
20
10.246161722246455
10
41.727917620859785
20
11.329334493646599
42
0.32935065572246514
10
41.96164778666224
20
11.875681087091529
42
0.016518942189503637
10
41.580862983947348
20
13.278178019975968
42
0.32935065572249783
10
41.102922030108871
20
13.631302410550962
10
38.961121420327423
20
13.631302410551005
42
-0.30095060539542667
10
38.040638400063798
20
14.240519850287212
42
0.044044363303080251
10
36.469763270907343
20
17.189062085564917
42
-0.30095060539544216
10
36.477613732367011
20
18.292861546394338
10
37.672375367020706
20
20.070459501056781
42
0.32935065572247563
10
37.645908067080349
20
20.664112491118182
42
0.016518942189503217
10
36.694312201123054
20
21.762502230974611
42
0.32935065572246602
10
36.110487350062769
20
21.873285505250863
10
34.180791679395185
20
20.943993048234613
42
-0.30095060539542012
10
33.087135594016523
20
21.093496380593958
42
0.044044363303080571
10
30.392501477296065
20
23.068463965549469
42
-0.30095060539543178
10
29.920653861369225
20
24.066359103736126
10
30.225826051539745
20
26.186307165931769
42
0.32935065572245481
10
29.944403459209894
20
26.709686297251775
42
0.016518942189503637
10
28.610471761820449
20
27.28641928523551
42
0.32935065572245831
10
28.036396685432699
20
27.132919457074895
10
26.701005847619065
20
25.45839231117851
42
-0.30095060539540669
10
25.650788697646277
20
25.118570567649176
42
0.044044363303080411
10
22.366100927696952
20
25.728796950694086
42
-0.30095060539543744
10
21.508010441549281
20
26.423142395739468
10
20.863150092282009
20
28.465558852293587
42
0.32935065572246391
10
20.382511403395206
20
28.81500246909054
42
0.016518942189503637
10
18.930445406840267
20
28.755849663765495
42
0.32935065572247779
10
18.479822714572403
20
28.368469256687078
10
18.003227242535608
20
26.280368059883038
42
-0.30095060539543678
10
17.20445741458882
20
25.518527104411191
42
0.044044363303080723
10
13.980288688300913
20
24.643149466447998
42
-0.30095060539544555
10
12.905910676503074
20
24.896421587372771
10
11.438740288663713
20
26.456780810470942
42
0.32935065572251626
10
10.854081890200607
20
26.563077318793418
42
0.01651894218950448
10
9.5714810735185711
20
25.879754658715729
42
0.32935065572248645
10
9.3335621160990012
20
25.335219113250304
10
9.8101575881357661
20
23.24711791644626
42
-0.30095060539544483
10
9.4210412429089345
20
22.214149693629235
42
0.044044363303079773
10
6.8959777183583739
20
20.026547311658788
42
-0.30095060539545676
10
5.8181059225285114
20
19.788582458735039
10
3.8192165850925348
20
20.557836167692606
42
0.32935065572251587
10
3.2463372432334703
20
20.399932240426253
42
0.01651894218950448
0
LWPOLYLINE
5
101
100
AcDbEntity
8
INTERIOR_PROFILES
100
AcDbPolyline
90
4
70
1
43
0.0
10
5.7953948098792267
20
9.509813440272934
42
-0.99999999999999989
10
8.7466080509142596
20
8.970980993273443
42
0.16831550243258372
10
9.943312367825424
20
1.2060895220159742
42
-0.99999999999999989
10
7.2912752060182111
20
-0.1963008987989312
42
-0.16831550243258447
0
LWPOLYLINE
5
102
100
AcDbEntity
8
INTERIOR_PROFILES
100
AcDbPolyline
90
4
70
1
43
0.0
10
26.161022698313957
20
-3.7924974419535253
42
-0.99999999999999989
10
27.563413119128846
20
-6.4445346037607729
42
-0.16831550243258392
10
17.857298780057008
20
-7.9404149998997164
42
-0.99999999999999989
10
18.396131227056504
20
-4.9892017588646596
42
0.16831550243258347
0
LWPOLYLINE
5
103
100
AcDbEntity
8
INTERIOR_PROFILES
100
AcDbPolyline
90
4
70
1
43
0.0
10
31.159609662283437
20
12.425212888534992
42
-0.99999999999999989
10
33.811646824090687
20
13.827603309349881
42
-0.16831550243258447
10
35.30752722022963
20
4.1214889702780413
42
-0.99999999999999989
10
32.356313979194624
20
4.6603214172775687
42
0.16831550243258339
0
CIRCLE
5
104
100
AcDbEntity
8
INTERIOR_PROFILES
100
AcDbCircle
10
-25.280661344688671
20
13.268144223445809
30
0
40
1.5999999999999974
210
0
220
0
230
-1
0
CIRCLE
5
105
100
AcDbEntity
8
INTERIOR_PROFILES
100
AcDbCircle
10
-15.822260685420249
20
0.36315818710519143
30
0
40
1.5999999999999996
210
0
220
0
230
-1
0
LWPOLYLINE
5
106
100
AcDbEntity
8
INTERIOR_PROFILES
100
AcDbPolyline
90
4
70
1
43
0.0
10
13.539508910980061
20
20.075837014311769
42
-0.1683155024325847
10
23.245623250051935
20
21.571717410450702
42
-0.99999999999999989
10
22.706790803052414
20
18.620504169415671
42
0.16831550243258334
10
14.941899331794975
20
17.423799852504537
42
-0.99999999999999989
0
CIRCLE
5
107
100
AcDbEntity
8
INTERIOR_PROFILES
100
AcDbCircle
10
-27.003954033224751
20
2.0864508756413036
30
0
40
1.5999999999999983
210
0
220
0
230
-1
0
CIRCLE
5
108
100
AcDbEntity
8
INTERIOR_PROFILES
100
AcDbCircle
10
-14.098967996884173
20
11.5448515349097
30
0
40
1.5999999999999996
210
0
220
0
230
-1
0
CIRCLE
5
109
100
AcDbEntity
8
INTERIOR_PROFILES
100
AcDbCircle
10
-20.551461015054461
20
6.8156512052755049
30
0
40
3.100000000000001
210
0
220
0
230
-1
0
ENDSEC
0
SECTION
2
OBJECTS
0
DICTIONARY
5
C
100
AcDbDictionary
3
ACAD_GROUP
350
D
3
ACAD_MLINESTYLE
350
17
0
DICTIONARY
5
D
100
AcDbDictionary
0
DICTIONARY
5
1A
330
C
100
AcDbDictionary
0
DICTIONARY
5
17
100
AcDbDictionary
0
ENDSEC
0
EOF
