0
SECTION
2
HEADER
9
$INSUNITS
70
4
9
$ACADVER
1
AC1014
9
$HANDSEED
5
FFFF
0
ENDSEC
0
SECTION
2
TABLES
0
TABLE
2
VPORT
5
8
100
AcDbSymbolTable
0
ENDTAB
0
TABLE
2
LTYPE
5
5
100
AcDbSymbolTable
0
LTYPE
5
14
100
AcDbSymbolTableRecord
100
AcDbLinetypeTableRecord
2
BYBLOCK
70
0
0
LTYPE
5
15
100
AcDbSymbolTableRecord
100
AcDbLinetypeTableRecord
2
BYLAYER
70
0
0
ENDTAB
0
TABLE
2
LAYER
5
2
100
AcDbSymbolTable
70
2
0
LAYER
5
50
100
AcDbSymbolTableRecord
100
AcDbLayerTableRecord
2
0
70
0
6
CONTINUOUS
0
ENDTAB
0
TABLE
2
STYLE
5
3
100
AcDbSymbolTable
70
1
0
STYLE
5
11
100
AcDbSymbolTableRecord
100
AcDbTextStyleTableRecord
2
STANDARD
70
0
0
ENDTAB
0
TABLE
2
VIEW
5
6
100
AcDbSymbolTable
70
0
0
ENDTAB
0
TABLE
2
UCS
5
7
100
AcDbSymbolTable
70
0
0
ENDTAB
0
TABLE
2
APPID
5
9
100
AcDbSymbolTable
70
2
0
APPID
5
12
100
AcDbSymbolTableRecord
100
AcDbRegAppTableRecord
2
ACAD
70
0
0
ENDTAB
0
TABLE
2
DIMSTYLE
5
A
100
AcDbSymbolTable
70
1
0
ENDTAB
0
TABLE
2
BLOCK_RECORD
5
1
100
AcDbSymbolTable
70
1
0
BLOCK_RECORD
5
1F
100
AcDbSymbolTableRecord
100
AcDbBlockTableRecord
2
*MODEL_SPACE
0
BLOCK_RECORD
5
1B
100
AcDbSymbolTableRecord
100
AcDbBlockTableRecord
2
*PAPER_SPACE
0
ENDTAB
0
ENDSEC
0
SECTION
2
BLOCKS
0
BLOCK
5
20
100
AcDbEntity
100
AcDbBlockBegin
2
*MODEL_SPACE
0
ENDBLK
5
21
100
AcDbEntity
100
AcDbBlockEnd
0
BLOCK
5
1C
100
AcDbEntity
100
AcDbBlockBegin
2
*PAPER_SPACE
0
ENDBLK
5
1D
100
AcDbEntity
100
AcDbBlockEnd
0
ENDSEC
0
SECTION
2
ENTITIES
0
LWPOLYLINE
5
100
100
AcDbEntity
8
OUTER_PROFILES
100
AcDbPolyline
90
56
70
1
43
0.0
10
358.0000000000004
20
1.999999999999523
42
-0.41421356237309387
10
356.00000000000028
20
-3.9801495432811862e-13
10
1.2246467991474146e-16
20
-4.2743586448068527e-14
42
-0.41421356237309309
10
-1.9999999999999156
20
2.0000000000000284
10
-1.9999999999999396
20
5.9990000000000521
10
-1.9999999999999529
20
7.3828715639065479
10
-1.9999999999999911
20
23.331661972437594
42
-0.19811746252787191
10
-0.82844584051394954
20
26.147852848138655
10
28.404572875253859
20
55.38087156390656
10
32.06242712474625
20
55.38087156390656
10
32.062427124746243
20
56.764743127813148
10
29.800480414161772
20
56.764743127813219
10
-12.714238211599636
20
56.764743127812892
10
-14.976184922184203
20
56.76474312781302
10
-30.91933067269219
20
56.764743127812693
42
-0.41421356237309243
10
-32.919330672692084
20
58.764743127812778
10
-32.91933067269219
20
188.76274312781288
42
-0.41421356237310802
10
-30.919330672692102
20
190.76274312781288
10
-14.976184922184114
20
190.76274312781288
10
-12.714238211599586
20
190.76274312781288
10
29.800480414161804
20
190.76274312781288
10
32.062427124746215
20
190.76274312781288
10
32.062427124746222
20
192.14661469170807
10
28.404572875253923
20
192.14661469170807
10
-0.82844584051387404
20
221.37963340747601
42
-0.19811746252787263
10
-1.9999999999999245
20
224.19582428317707
10
-1.9999999999999885
20
240.14461469170809
10
-1.9999999999998641
20
241.52848625561438
10
-1.999999999999889
20
245.52748625561441
42
-0.41421356237308893
10
1.0468258884470004e-13
20
247.52748625561438
10
355.99999999999994
20
247.52748625561441
42
-0.414213562373069
10
357.99999999999983
20
245.52748625561435
10
357.99999999999955
20
241.52848625561438
10
358.00000000000045
20
240.14461469170817
10
358
20
224.19582428317713
42
-0.19811746252788531
10
356.82844584051384
20
221.37963340747592
10
327.59542712474649
20
192.14661469170812
10
323.93757287525352
20
192.14661469170812
10
323.93757287525352
20
190.76274312781288
10
326.19951958583806
20
190.76274312781291
10
368.71423821159954
20
190.76274312781291
10
370.97618492218476
20
190.76274312781288
10
386.91933067269275
20
190.76274312781291
42
-0.41421356237309509
10
388.91933067269281
20
188.76274312781288
10
388.91933067269281
20
58.764743127812444
42
-0.41421356237309509
10
386.91933067269281
20
56.764743127812373
10
370.97618492218481
20
56.764743127812665
10
368.71423821159971
20
56.764743127812608
10
326.19951958583817
20
56.764743127812537
10
323.93757287525375
20
56.764743127812579
10
323.93757287525375
20
55.38087156390651
10
327.59542712474575
20
55.380871563906489
10
356.82844584051401
20
26.147852848138694
42
-0.19811746252788373
10
358.00000000000017
20
23.331661972437523
10
357.99999999999966
20
7.3828715639064768
10
357.9999999999996
20
5.9989999999995547
0
CIRCLE
5
101
100
AcDbEntity
8
INTERIOR_PROFILES
100
AcDbCircle
10
-379.91933067269292
20
98.763743127812873
30
0
40
4.1000000000000014
210
0
220
0
230
-1
0
CIRCLE
5
102
100
AcDbEntity
8
INTERIOR_PROFILES
100
AcDbCircle
10
-379.91933067269264
20
148.76374312781257
30
0
40
6.0500000000000043
210
0
220
0
230
-1
0
CIRCLE
5
103
100
AcDbEntity
8
INTERIOR_PROFILES
100
AcDbCircle
10
247.99999999999977
20
15.381871563906486
30
0
40
2.0500000000000185
210
0
220
0
230
1
0
CIRCLE
5
104
100
AcDbEntity
8
INTERIOR_PROFILES
100
AcDbCircle
10
137.99999999999977
20
15.381871563906557
30
0
40
2.0500000000000185
210
0
220
0
230
1
0
CIRCLE
5
105
100
AcDbEntity
8
INTERIOR_PROFILES
100
AcDbCircle
10
342.99999999999977
20
20.382871563906484
30
0
40
2.5500000000000256
210
0
220
0
230
1
0
CIRCLE
5
106
100
AcDbEntity
8
INTERIOR_PROFILES
100
AcDbCircle
10
323.97525912833777
20
46.380871563906503
30
0
40
1.5500000000000114
210
0
220
0
230
1
0
LWPOLYLINE
5
107
100
AcDbEntity
8
INTERIOR_PROFILES
100
AcDbPolyline
90
4
70
1
43
0.0
10
324.06248569886168
20
29.381095352107664
42
0.087440500184635672
10
329.87113254266751
20
30.436007926734867
42
0.99999999999999989
10
328.48418466852473
20
34.187857549838412
42
-0.087440499609952788
10
324.04162440686866
20
33.381040952549476
42
0.99999999999999989
0
CIRCLE
5
108
100
AcDbEntity
8
INTERIOR_PROFILES
100
AcDbCircle
10
309.99719564389773
20
14.455911521909499
30
0
40
1.0500000000000043
210
0
220
0
230
1
0
CIRCLE
5
109
100
AcDbEntity
8
INTERIOR_PROFILES
100
AcDbCircle
10
286.69307925286176
20
46.380871563906503
30
0
40
1.5499999999999758
210
0
220
0
230
1
0
LWPOLYLINE
5
110
100
AcDbEntity
8
INTERIOR_PROFILES
100
AcDbPolyline
90
4
70
1
43
0.0
10
286.78030582338477
20
29.381095352107664
42
0.087440500184649897
10
292.58895266719156
20
30.436007926734892
42
0.99999999999999989
10
291.20200479304782
20
34.187857549838455
42
-0.087440499609953745
10
286.75944453139175
20
33.381040952549476
42
0.99999999999999989
0
CIRCLE
5
111
100
AcDbEntity
8
INTERIOR_PROFILES
100
AcDbCircle
10
272.71501576842076
20
14.455911521909499
30
0
40
1.0500000000000043
210
0
220
0
230
1
0
CIRCLE
5
112
100
AcDbEntity
8
INTERIOR_PROFILES
100
AcDbCircle
10
249.41089937738474
20
46.380871563906503
30
0
40
1.5499999999999758
210
0
220
0
230
1
0
LWPOLYLINE
5
113
100
AcDbEntity
8
INTERIOR_PROFILES
100
AcDbPolyline
90
4
70
1
43
0.0
10
249.49812594790774
20
29.381095352107664
42
0.087440500184650966
10
255.30677279171465
20
30.436007926734906
42
1.0000000105367119
10
253.91982491757076
20
34.187857549838448
42
-0.087440499609951469
10
249.47726465591478
20
33.381040952549476
42
0.99999998946328772
0
CIRCLE
5
114
100
AcDbEntity
8
INTERIOR_PROFILES
100
AcDbCircle
10
235.43283589294379
20
14.455911521909499
30
0
40
1.0500000000000043
210
0
220
0
230
1
0
CIRCLE
5
115
100
AcDbEntity
8
INTERIOR_PROFILES
100
AcDbCircle
10
212.12871950190777
20
46.380871563906524
30
0
40
1.5499999999999758
210
0
220
0
230
1
0
LWPOLYLINE
5
116
100
AcDbEntity
8
INTERIOR_PROFILES
100
AcDbPolyline
90
4
70
1
43
0.0
10
212.21594607243077
20
29.381095352107671
42
0.087440500184650466
10
218.02459291623762
20
30.436007926734931
42
0.99999999999999989
10
216.63764504209379
20
34.187857549838476
42
-0.087440499609953037
10
212.19508478043775
20
33.381040952549498
42
0.99999999999999989
0
CIRCLE
5
117
100
AcDbEntity
8
INTERIOR_PROFILES
100
AcDbCircle
10
198.15065601746676
20
14.455911521909499
30
0
40
1.0500000000000043
210
0
220
0
230
1
0
CIRCLE
5
118
100
AcDbEntity
8
INTERIOR_PROFILES
100
AcDbCircle
10
174.84653962643077
20
46.380871563906524
30
0
40
1.5499999999999758
210
0
220
0
230
1
0
LWPOLYLINE
5
119
100
AcDbEntity
8
INTERIOR_PROFILES
100
AcDbPolyline
90
4
70
1
43
0.0
10
174.93376619695374
20
29.381095352107678
42
0.087440500184650466
10
180.7424130407606
20
30.436007926734924
42
0.99999999999999989
10
179.35546516661677
20
34.187857549838476
42
-0.087440499609952371
10
174.91290490496078
20
33.38104095254949
42
0.99999999999999989
0
CIRCLE
5
120
100
AcDbEntity
8
INTERIOR_PROFILES
100
AcDbCircle
10
160.86847614198976
20
14.455911521909499
30
0
40
1.0500000000000043
210
0
220
0
230
1
0
CIRCLE
5
121
100
AcDbEntity
8
INTERIOR_PROFILES
100
AcDbCircle
10
137.56435975095374
20
46.380871563906538
30
0
40
1.5499999999999936
210
0
220
0
230
1
0
LWPOLYLINE
5
122
100
AcDbEntity
8
INTERIOR_PROFILES
100
AcDbPolyline
90
4
70
1
43
0.0
10
137.65158632147677
20
29.381095352107689
42
0.087440500184650147
10
143.46023316528363
20
30.436007926734948
42
0.99999999999999989
10
142.07328529113977
20
34.187857549838498
42
-0.087440499609952788
10
137.63072502948376
20
33.381040952549512
42
0.99999999999999989
0
CIRCLE
5
123
100
AcDbEntity
8
INTERIOR_PROFILES
100
AcDbCircle
10
123.58629626651276
20
14.45591152190957
30
0
40
1.0500000000000043
210
0
220
0
230
1
0
CIRCLE
5
124
100
AcDbEntity
8
INTERIOR_PROFILES
100
AcDbCircle
10
100.28217987547677
20
46.380871563906538
30
0
40
1.5499999999999936
210
0
220
0
230
1
0
LWPOLYLINE
5
125
100
AcDbEntity
8
INTERIOR_PROFILES
100
AcDbPolyline
90
4
70
1
43
0.0
10
100.36940644599977
20
29.3810953521077
42
0.087440500184650383
10
106.17805328980663
20
30.436007926734948
42
0.99999999999999989
10
104.79110541566278
20
34.187857549838498
42
-0.087440499609953037
10
100.34854515400674
20
33.381040952549512
42
0.99999999999999989
0
CIRCLE
5
126
100
AcDbEntity
8
INTERIOR_PROFILES
100
AcDbCircle
10
86.304116391035762
20
14.45591152190957
30
0
40
1.0500000000000043
210
0
220
0
230
1
0
CIRCLE
5
127
100
AcDbEntity
8
INTERIOR_PROFILES
100
AcDbCircle
10
62.999999999999957
20
46.380871563906553
30
0
40
1.5499999999999936
210
0
220
0
230
1
0
LWPOLYLINE
5
128
100
AcDbEntity
8
INTERIOR_PROFILES
100
AcDbPolyline
90
4
70
1
43
0.0
10
63.087226570523242
20
29.381095352107714
42
0.08744050018464336
10
68.895873414329628
20
30.436007926734892
42
0.99999999999999989
10
67.508925540186254
20
34.18785754983854
42
-0.087440499609954661
10
63.066365278530142
20
33.381040952549526
42
0.99999999999999989
0
CIRCLE
5
129
100
AcDbEntity
8
INTERIOR_PROFILES
100
AcDbCircle
10
49.021936515559247
20
14.45591152190957
30
0
40
1.0500000000000043
210
0
220
0
230
1
0
CIRCLE
5
130
100
AcDbEntity
8
INTERIOR_PROFILES
100
AcDbCircle
10
16.838217485980142
20
25.03456073022555
30
0
40
1.6000000000000014
210
-0
220
0
230
1
0
CIRCLE
5
131
100
AcDbEntity
8
INTERIOR_PROFILES
100
AcDbCircle
10
36.808613321833455
20
42.977060281828571
30
0
40
1.6000000000000103
210
-0
220
0
230
1
0
CIRCLE
5
132
100
AcDbEntity
8
INTERIOR_PROFILES
100
AcDbCircle
10
42.362075822985844
20
16.710940388547542
30
0
40
1.6000000000000014
210
-0
220
0
230
1
0
CIRCLE
5
133
100
AcDbEntity
8
INTERIOR_PROFILES
100
AcDbCircle
10
24.966123525414844
20
30.535649059435528
30
0
40
6.2000000000000233
210
0
220
0
230
1
0
CIRCLE
5
134
100
AcDbEntity
8
INTERIOR_PROFILES
100
AcDbCircle
10
348.00000000000045
20
2.9999999999999716
30
0
40
1.6500000000000004
210
0
220
0
230
1
0
CIRCLE
5
135
100
AcDbEntity
8
INTERIOR_PROFILES
100
AcDbCircle
10
234.66666666666654
20
2.9999999999998295
30
0
40
1.6500000000000004
210
-0
220
0
230
1
0
CIRCLE
5
136
100
AcDbEntity
8
INTERIOR_PROFILES
100
AcDbCircle
10
121.33333333333354
20
2.9999999999997584
30
0
40
1.6500000000000004
210
-0
220
0
230
1
0
CIRCLE
5
137
100
AcDbEntity
8
INTERIOR_PROFILES
100
AcDbCircle
10
8.0000000000000338
20
2.9999999999996163
30
0
40
1.6500000000000004
210
-0
220
0
230
1
0
CIRCLE
5
138
100
AcDbEntity
8
INTERIOR_PROFILES
100
AcDbCircle
10
-247.99999999999952
20
232.14561469170818
30
0
40
2.0500000000000185
210
0
220
0
230
-1
0
CIRCLE
5
139
100
AcDbEntity
8
INTERIOR_PROFILES
100
AcDbCircle
10
-137.99999999999952
20
232.14561469170815
30
0
40
2.0500000000000185
210
0
220
0
230
-1
0
CIRCLE
5
140
100
AcDbEntity
8
INTERIOR_PROFILES
100
AcDbCircle
10
-343.00000000000057
20
227.14461469170814
30
0
40
2.5500000000000256
210
0
220
0
230
-1
0
CIRCLE
5
141
100
AcDbEntity
8
INTERIOR_PROFILES
100
AcDbCircle
10
-323.97525912833851
20
201.14661469170818
30
0
40
1.5500000000000114
210
0
220
0
230
-1
0
LWPOLYLINE
5
142
100
AcDbEntity
8
INTERIOR_PROFILES
100
AcDbPolyline
90
4
70
1
43
0.0
10
324.06248569886145
20
218.14639090350704
42
-0.087440500184650383
10
329.87113254266831
20
217.09147832887979
42
-0.99999999999999989
10
328.48418466852434
20
213.33962870577605
42
0.087440499609950081
10
324.04162440686855
20
214.14644530306464
42
-0.99999999999999989
0
CIRCLE
5
143
100
AcDbEntity
8
INTERIOR_PROFILES
100
AcDbCircle
10
-309.99719564389744
20
233.07157473370518
30
0
40
1.0500000000000043
210
0
220
0
230
-1
0
CIRCLE
5
144
100
AcDbEntity
8
INTERIOR_PROFILES
100
AcDbCircle
10
-286.69307925286148
20
201.14661469170815
30
0
40
1.5499999999999758
210
0
220
0
230
-1
0
LWPOLYLINE
5
145
100
AcDbEntity
8
INTERIOR_PROFILES
100
AcDbPolyline
90
4
70
1
43
0.0
10
286.78030582338454
20
218.14639090350704
42
-0.087440500184650383
10
292.58895266719139
20
217.09147832887979
42
-0.99999999999999989
10
291.20200479304742
20
213.33962870577602
42
0.087440499609951469
10
286.75944453139152
20
214.14644530306464
42
-0.99999999999999989
0
CIRCLE
5
146
100
AcDbEntity
8
INTERIOR_PROFILES
100
AcDbCircle
10
-272.71501576842059
20
233.07157473370518
30
0
40
1.0500000000000043
210
0
220
0
230
-1
0
CIRCLE
5
147
100
AcDbEntity
8
INTERIOR_PROFILES
100
AcDbCircle
10
-249.41089937738454
20
201.14661469170815
30
0
40
1.5499999999999758
210
0
220
0
230
-1
0
LWPOLYLINE
5
148
100
AcDbEntity
8
INTERIOR_PROFILES
100
AcDbPolyline
90
4
70
1
43
0.0
10
249.49812594790754
20
218.14639090350704
42
-0.087440500184649897
10
255.30677279171437
20
217.09147832887979
42
-0.99999999999999989
10
253.91982491757048
20
213.33962870577602
42
0.087440499609952788
10
249.4772646559145
20
214.14644530306464
42
-0.99999998946328772
0
CIRCLE
5
149
100
AcDbEntity
8
INTERIOR_PROFILES
100
AcDbCircle
10
-235.4328358929435
20
233.07157473370518
30
0
40
1.0500000000000043
210
0
220
0
230
-1
0
CIRCLE
5
150
100
AcDbEntity
8
INTERIOR_PROFILES
100
AcDbCircle
10
-212.12871950190754
20
201.14661469170815
30
0
40
1.5499999999999758
210
0
220
0
230
-1
0
LWPOLYLINE
5
151
100
AcDbEntity
8
INTERIOR_PROFILES
100
AcDbPolyline
90
4
70
1
43
0.0
10
212.21594607243051
20
218.14639090350704
42
-0.087440500184650549
10
218.02459291623737
20
217.09147832887976
42
-0.99999999999999989
10
216.63764504209351
20
213.33962870577602
42
0.087440499609953509
10
212.1950847804375
20
214.14644530306464
42
-0.99999999999999989
0
CIRCLE
5
152
100
AcDbEntity
8
INTERIOR_PROFILES
100
AcDbCircle
10
-198.15065601746653
20
233.07157473370518
30
0
40
1.0500000000000043
210
0
220
0
230
-1
0
CIRCLE
5
153
100
AcDbEntity
8
INTERIOR_PROFILES
100
AcDbCircle
10
-174.84653962643051
20
201.14661469170812
30
0
40
1.5499999999999758
210
0
220
0
230
-1
0
LWPOLYLINE
5
154
100
AcDbEntity
8
INTERIOR_PROFILES
100
AcDbPolyline
90
4
70
1
43
0.0
10
174.93376619695354
20
218.14639090350698
42
-0.087440500184650466
10
180.7424130407604
20
217.0914783288797
42
-0.99999999999999989
10
179.35546516661648
20
213.33962870577602
42
0.087440499609952788
10
174.91290490496053
20
214.14644530306464
42
-0.99999999999999989
0
CIRCLE
5
155
100
AcDbEntity
8
INTERIOR_PROFILES
100
AcDbCircle
10
-160.8684761419895
20
233.07157473370512
30
0
40
1.0500000000000043
210
0
220
0
230
-1
0
CIRCLE
5
156
100
AcDbEntity
8
INTERIOR_PROFILES
100
AcDbCircle
10
-137.56435975095354
20
201.14661469170812
30
0
40
1.5499999999999936
210
0
220
0
230
-1
0
LWPOLYLINE
5
157
100
AcDbEntity
8
INTERIOR_PROFILES
100
AcDbPolyline
90
4
70
1
43
0.0
10
137.65158632147654
20
218.14639090350698
42
-0.087440500184650383
10
143.46023316528337
20
217.0914783288797
42
-0.99999999999999989
10
142.07328529114031
20
213.33962870577568
42
0.087440499609969968
10
137.6307250294835
20
214.14644530306464
42
-0.99999999999999989
0
CIRCLE
5
158
100
AcDbEntity
8
INTERIOR_PROFILES
100
AcDbCircle
10
-123.58629626651351
20
233.07157473370512
30
0
40
1.0500000000000043
210
0
220
0
230
-1
0
CIRCLE
5
159
100
AcDbEntity
8
INTERIOR_PROFILES
100
AcDbCircle
10
-100.2821798754765
20
201.14661469170812
30
0
40
1.5499999999999936
210
0
220
0
230
-1
0
LWPOLYLINE
5
160
100
AcDbEntity
8
INTERIOR_PROFILES
100
AcDbPolyline
90
4
70
1
43
0.0
10
100.36940644600053
20
218.14639090350695
42
-0.087440500184635589
10
106.17805328980639
20
217.0914783288797
42
-0.99999999999999989
10
104.79110541566348
20
213.33962870577602
42
0.087440499609971606
10
100.34854515400653
20
214.14644530306461
42
-0.99999999999999989
0
CIRCLE
5
161
100
AcDbEntity
8
INTERIOR_PROFILES
100
AcDbCircle
10
-86.30411639103653
20
233.07157473370512
30
0
40
1.0500000000000043
210
0
220
0
230
-1
0
CIRCLE
5
162
100
AcDbEntity
8
INTERIOR_PROFILES
100
AcDbCircle
10
-62.999999999999915
20
201.14661469170812
30
0
40
1.5499999999999936
210
0
220
0
230
-1
0
LWPOLYLINE
5
163
100
AcDbEntity
8
INTERIOR_PROFILES
100
AcDbPolyline
90
4
70
1
43
0.0
10
63.087226570523207
20
218.14639090350695
42
-0.087440500184640252
10
68.895873414329415
20
217.09147832887987
42
-0.99999999999999989
10
67.508925540186269
20
213.33962870577597
42
0.087440499609956368
10
63.066365278530121
20
214.14644530306461
42
-0.99999999999999989
0
CIRCLE
5
164
100
AcDbEntity
8
INTERIOR_PROFILES
100
AcDbCircle
10
-49.021936515559226
20
233.07157473370512
30
0
40
1.0500000000000043
210
0
220
0
230
-1
0
CIRCLE
5
165
100
AcDbEntity
8
INTERIOR_PROFILES
100
AcDbCircle
10
-16.838217485980117
20
222.49292552538913
30
0
40
1.6000000000000014
210
0
220
0
230
-1
0
CIRCLE
5
166
100
AcDbEntity
8
INTERIOR_PROFILES
100
AcDbCircle
10
-36.808613321833533
20
204.55042597378608
30
0
40
1.6000000000000014
210
0
220
0
230
-1
0
CIRCLE
5
167
100
AcDbEntity
8
INTERIOR_PROFILES
100
AcDbCircle
10
-42.362075822985815
20
230.81654586706708
30
0
40
1.6000000000000014
210
0
220
0
230
-1
0
CIRCLE
5
168
100
AcDbEntity
8
INTERIOR_PROFILES
100
AcDbCircle
10
-24.966123525414815
20
216.99183719617909
30
0
40
6.2000000000000135
210
0
220
0
230
-1
0
CIRCLE
5
169
100
AcDbEntity
8
INTERIOR_PROFILES
100
AcDbCircle
10
-347.99999999999966
20
244.52748625561441
30
0
40
1.6499999999999915
210
0
220
0
230
-1
0
CIRCLE
5
170
100
AcDbEntity
8
INTERIOR_PROFILES
100
AcDbCircle
10
-234.6666666666668
20
244.52748625561441
30
0
40
1.6499999999999915
210
0
220
0
230
-1
0
CIRCLE
5
171
100
AcDbEntity
8
INTERIOR_PROFILES
100
AcDbCircle
10
-121.3333333333338
20
244.52748625561441
30
0
40
1.6499999999999915
210
0
220
0
230
-1
0
CIRCLE
5
172
100
AcDbEntity
8
INTERIOR_PROFILES
100
AcDbCircle
10
-8.0000000000000639
20
244.52748625561441
30
0
40
1.6499999999999915
210
0
220
0
230
-1
0
LINE
5
173
100
AcDbEntity
8
BEND
100
AcDbLine
10
32.062427124746257
20
56.072807345881813
30
-5.5774829194171527e-13
11
323.93757287525375
21
56.072807345881813
31
-9.1301965983958145e-13
0
LINE
5
174
100
AcDbEntity
8
BEND
100
AcDbLine
10
323.93757287525352
20
191.45467890972367
30
-8.2420181790457749e-13
11
32.062427124746229
21
191.45467890972367
31
-8.5972895469410519e-13
0
LINE
5
175
100
AcDbEntity
8
BEND
100
AcDbLine
10
30.931453769454063
20
56.764743127813219
30
-7.4781041828827899e-13
11
30.931453769454063
21
190.76274312781288
31
-8.4674215719770454e-13
0
LINE
5
176
100
AcDbEntity
8
BEND
100
AcDbLine
10
369.84521156689209
20
190.76274312781288
30
4.1290164456557037e-13
11
369.84521156689209
21
56.764743127812736
31
2.8184374231080426e-13
0
LINE
5
177
100
AcDbEntity
8
BEND
100
AcDbLine
10
325.06854623054573
20
190.76274312781291
30
-7.9193580247595964e-13
11
325.06854623054573
21
56.764743127812665
31
-7.9610313733474392e-13
0
LINE
5
178
100
AcDbEntity
8
BEND
100
AcDbLine
10
-13.845211566892019
20
56.764743127812913
30
-9.0767670362167192e-13
11
-13.845211566892011
21
190.76274312781288
31
-9.7551329249068924e-13
0
LINE
5
179
100
AcDbEntity
8
BEND
100
AcDbLine
10
-1.9999999999999263
20
6.6909357819283954
30
-6.8556271769983778e-13
11
357.9999999999996
21
6.6909357819283954
31
-2.5923707625183243e-13
0
LINE
5
180
100
AcDbEntity
8
BEND
100
AcDbLine
10
357.99999999999966
20
240.83655047369493
30
-1.6986412276746076e-13
11
-1.9999999999998863
21
240.83655047369493
31
-2.2315482795151919e-13
0
LINE
5
181
100
AcDbEntity
8
BEND_EXTENT
100
AcDbLine
10
-1.9999999999999396
20
5.9990000000000521
30
-4.6185277824406512e-13
11
357.9999999999996
21
5.9989999999995547
31
-3.5527136788004752e-13
0
LINE
5
182
100
AcDbEntity
8
BEND_EXTENT
100
AcDbLine
10
357.99999999999966
20
7.3828715639064768
30
-2.842170943040375e-13
11
-1.9999999999999574
21
7.3828715639065479
31
-7.9936057773011271e-13
0
LINE
5
183
100
AcDbEntity
8
BEND_EXTENT
100
AcDbLine
10
32.06242712474625
20
55.38087156390656
30
-4.6185277824406492e-13
11
323.93757287525375
21
55.38087156390651
31
-9.9475983006413784e-13
0
LWPOLYLINE
5
184
100
AcDbEntity
8
BEND_EXTENT
100
AcDbPolyline
90
4
70
1
43
0.0
10
323.93757287525375
20
56.764743127812579
10
32.062427124746229
20
56.764743127813148
10
32.062427124746229
20
190.76274312781288
10
323.93757287525352
20
190.76274312781288
0
LINE
5
185
100
AcDbEntity
8
BEND_EXTENT
100
AcDbLine
10
370.97618492218476
20
190.76274312781288
30
3.9079850466805788e-13
11
370.97618492218481
21
56.764743127812665
31
1.776356839400277e-13
0
LINE
5
186
100
AcDbEntity
8
BEND_EXTENT
100
AcDbLine
10
368.71423821159971
20
56.764743127812608
30
3.1974423109204786e-13
11
368.71423821159954
21
190.76274312781291
31
3.9079850466805788e-13
0
LINE
5
187
100
AcDbEntity
8
BEND_EXTENT
100
AcDbLine
10
326.19951958583806
20
190.76274312781291
30
-6.0396132539608273e-13
11
326.19951958583817
21
56.764743127812537
31
-6.7501559897209275e-13
0
LINE
5
188
100
AcDbEntity
8
BEND_EXTENT
100
AcDbLine
10
-1.9999999999998641
20
241.52848625561438
30
-2.1316282072803006e-13
11
357.99999999999955
21
241.52848625561438
31
-1.4210854715201739e-13
0
LINE
5
189
100
AcDbEntity
8
BEND_EXTENT
100
AcDbLine
10
-14.976184922184203
20
56.76474312781302
30
-8.4376949871511907e-13
11
-14.976184922184114
21
190.76274312781288
31
-8.7929663550312408e-13
0
LINE
5
190
100
AcDbEntity
8
BEND_EXTENT
100
AcDbLine
10
-12.714238211599639
20
56.764743127812892
30
-9.5923269327613525e-13
11
-12.714238211599586
21
190.76274312781288
31
-1.0658141036401503e-12
0
LINE
5
191
100
AcDbEntity
8
BEND_EXTENT
100
AcDbLine
10
29.800480414161772
20
56.764743127813219
30
-5.6843418860807995e-13
11
29.800480414161807
21
190.76274312781288
31
-6.5725203057809247e-13
0
LINE
5
192
100
AcDbEntity
8
BEND_EXTENT
100
AcDbLine
10
358.00000000000045
20
240.14461469170817
30
-1.6819878823070857e-13
11
-1.9999999999999574
21
240.14461469170809
31
-1.7347234759768071e-13
0
LINE
5
193
100
AcDbEntity
8
BEND_EXTENT
100
AcDbLine
10
32.062427124746222
20
192.14661469170807
30
-8.4710016778899424e-13
11
323.93757287525352
21
192.14661469170812
31
-8.5431661744905553e-13
0
ENDSEC
0
SECTION
2
OBJECTS
0
DICTIONARY
5
C
100
AcDbDictionary
3
ACAD_GROUP
350
D
3
ACAD_MLINESTYLE
350
17
0
DICTIONARY
5
D
100
AcDbDictionary
0
DICTIONARY
5
1A
330
C
100
AcDbDictionary
0
DICTIONARY
5
17
100
AcDbDictionary
0
ENDSEC
0
EOF
